<?xml version="1.0" encoding="utf-8"?>
<!-- Generator: Adobe Illustrator 24.0.1, SVG Export Plug-In . SVG Version: 6.00 Build 0)  -->
<svg version="1.1" id="Layer_1" xmlns="http://www.w3.org/2000/svg" xmlns:xlink="http://www.w3.org/1999/xlink" x="0px" y="0px"
	 style="enable-background:new 0 0 125.9 154.6;" xml:space="preserve" height="150" width="130">
<style type="text/css">
	.st0{fill:#09B7BE;}
</style>
<g>
	<path class="st0" d="M93.8,116.9l10.5-0.5c0.8,0,1.7,0.2,2.4,0.7l1.5,1.1c1.3,1,2.9,1.5,4.5,1.5c0.3,0,0.7,0,1.1-0.1
		c2-0.3,3.8-1.3,5-2.9l0.3-0.4c1.7-2.3,2-5.3,0.7-7.9l-3.6-7.2c-0.3-0.6-0.4-1.1-0.4-1.7V64c0-0.8,0.3-1.6,0.7-2.2l1.7-2.3
		c2.3-3,2-7.2-0.7-9.9l-3.3-3.3c-2.3-2.3-5.8-2.8-8.7-1.4l-2.7,1.4c-0.6,0.3-1.2,0.4-1.8,0.4L65.5,45c-2.2-0.1-4.4-0.1-6.5,0
		l-34.2,1.7c-0.4,0-0.8,0-1.2-0.1L16,44.4c-3.8-1.1-7.6,0.9-9.1,4.4l-0.8,1.9c-1,2.4-0.6,5.2,1,7.3l2.7,3.6c0.5,0.7,0.7,1.4,0.7,2.2
		v38.6c0,1-0.4,1.9-1.1,2.6l-1.2,1.2c-2.3,2.3-2.9,5.8-1.4,8.7c1.5,3.1,5.1,4.8,8.6,3.9l10.1-2.5c0.4-0.1,0.7-0.1,1.1-0.1l6.4,4.5
		l9.8,16.7l18,9.3l19.4-7.3L93.8,116.9z M32.9,118.7l-6.1-6.1c-0.7,0-1.5,0-2.3,0.2l-10.1,2.5c-1.7,0.4-3.5-0.4-4.2-1.9
		c-0.7-1.4-0.4-3.1,0.7-4.3l1.2-1.2c1.4-1.4,2.2-3.3,2.2-5.3V64c0-1.6-0.5-3.2-1.5-4.5l-2.7-3.6c-0.8-1-1-2.4-0.5-3.6l0.8-1.9
		c0.7-1.8,2.6-2.7,4.4-2.2l7.6,2.2c0.8,0.2,1.7,0.3,2.5,0.3l34.2-1.7c2-0.1,4-0.1,6.1,0l35.6,1.7c1.3,0,2.6-0.2,3.7-0.8l2.7-1.4
		c1.4-0.7,3.2-0.4,4.3,0.7l3.3,3.3c1.3,1.3,1.5,3.4,0.3,4.9l-1.7,2.3c-1,1.3-1.5,2.9-1.5,4.5v35.8c0,1.1,0.3,2.3,0.8,3.4l3.6,7.2
		c0.6,1.3,0.5,2.8-0.3,3.9l-0.3,0.4c-0.6,0.8-1.5,1.3-2.4,1.4c-1,0.1-2-0.1-2.8-0.7l-1.5-1.1c-1.4-1.1-3.1-1.6-4.9-1.5l-6.8,0.5
		L86,132.4l-15.9,13.3l-18.9-1.6L38,129.8L32.9,118.7z"/>
	<path class="st0" d="M94.7,6.5c-9.5,0-17.2,7.7-17.2,17.2S85.2,41,94.7,41s17.2-7.7,17.2-17.2S104.2,6.5,94.7,6.5z M94.7,37.2
		c-7.4,0-13.4-6-13.4-13.4s6-13.4,13.4-13.4s13.4,6,13.4,13.4S102.1,37.2,94.7,37.2z"/>
	<path class="st0" d="M96.6,14.2h-3.8v9.6c0,1.1,0.9,1.9,1.9,1.9h7.7v-3.8h-5.7V14.2z"/>
	<path class="st0" d="M27.6,38c4.1,0,7.9-1.6,10.8-4.5c0.6-0.6,0.7-1.5,0.4-2.2s-1.2-1.2-2-1c-0.7,0.1-1.2,0.1-1.7,0.1
		c-6.4,0-11.6-5.2-11.6-11.6c0-3.1,1.2-6,3.4-8.2c0.6-0.6,0.7-1.5,0.4-2.2c-0.4-0.7-1.2-1.2-2-1c-7.5,1.1-13.1,7.7-13.1,15.2
		C12.2,31.1,19.1,38,27.6,38z M20.7,13.4c-0.7,1.7-1,3.6-1,5.5c0,7,4.8,13,11.2,14.8c-1.1,0.3-2.2,0.5-3.3,0.5
		c-6.4,0-11.6-5.2-11.6-11.6C16.1,18.9,17.9,15.5,20.7,13.4z"/>
	<path class="st0" d="M35.2,15.1L35.2,15.1c-1.1,0-1.9,0.9-1.9,1.9l0,0c0,1.1,0.9,1.9,1.9,1.9l0,0c1.1,0,1.9-0.9,1.9-1.9l0,0
		C37.1,15.9,36.3,15.1,35.2,15.1z"/>
	<path class="st0" d="M42.9,22.7L42.9,22.7c-1.1,0-1.9,0.9-1.9,1.9l0,0c0,1.1,0.9,1.9,1.9,1.9l0,0c1.1,0,1.9-0.9,1.9-1.9l0,0
		C44.8,23.6,43.9,22.7,42.9,22.7z"/>
	<path class="st0" d="M48.6,9.3L48.6,9.3c-1.1,0-1.9,0.9-1.9,1.9l0,0c0,1.1,0.9,1.9,1.9,1.9l0,0c1.1,0,1.9-0.9,1.9-1.9l0,0
		C50.5,10.2,49.7,9.3,48.6,9.3z"/>
	<path class="st0" d="M99.6,99.7c0-6.7-1.3-13.2-4-19.1l0,0c-6-14.6-18.8-24.7-33.6-24.7c-20.5,0-37.1,19.3-37.3,43.3
		c-2.3,4.2-2.9,8-1.7,11.7c0.5,1.9,1.4,3.4,2.4,4.6c1.4,1.9,3,3.1,4.2,3.9c1.3,4.7,3.4,9,6.2,13c0.2,0.3,0.4,0.5,0.7,0.7
		c3.2,4.4,7.3,8.2,12.1,11.2l2.9,1.7c2.9,1.7,6.3,2.7,10.1,2.7h1.9c3.3,0,6.7-0.8,9.6-2.3l3.1-1.9c9.2-5.7,15.9-14.5,18.8-24.7
		c1.7-1.1,5.2-3.8,6.5-8.2C102.5,107.7,101.9,103.7,99.6,99.7z M74,140.3l-2.7,1.7l-0.6,0.2c-2.3,1.3-4.8,1.9-7.5,1.9h-1.9
		c-2.9,0-5.5-0.8-7.8-2.1l-2.9-1.7c-5-3.2-9.2-7.4-12.3-12.2c-0.2-0.3-0.4-0.6-0.6-0.9c-1.8-3-3.2-6.3-4.2-9.8l-0.2-1l-0.1,0l0-0.2
		l-0.8-0.4c0,0-4-2.1-5.2-6.1c-0.8-2.5-0.2-5.4,1.7-8.6l0.4-0.6v-0.6c0-16.4,8.3-30.4,20.1-36.3c3.9-2,8.2-3.1,12.8-3.1
		c0,0,0.1,0,0.1,0c12.6,0,23.5,8.5,29,21c0,0.3,0,0.6,0.1,0.9c2.5,5.5,3.6,11.7,3.6,18v0.4l0.4,0.6c1.9,3.1,2.5,5.9,1.7,8.6
		c-1.1,3.9-5,6-5.1,6.1l-0.9,0.4l0,0l-0.1,0l-0.2,1c-0.9,3.5-2.3,6.8-4.1,9.8c-0.2,0.4-0.5,0.8-0.8,1.2c-0.2,0.3-0.5,0.7-0.7,1
		c-1.4,2-3.1,4-4.9,5.7c-0.3,0.3-0.6,0.6-0.8,0.9C78,137.5,76,139,74,140.3z"/>
	<path class="st0" d="M28.1,98.7c-2.3,0-3.6-0.2-3.6-0.2c-1.1-0.2-2.1-1.3-1.9-2.5c0.2-1.1,1.3-2.1,2.5-1.9c0.2,0,5.2,0.6,10.9-0.6
		c7.5-1.7,12.8-5.7,15.9-12.2c0.6-1.1,1.7-1.5,2.9-1.1c1.1,0.6,1.5,1.7,1.1,2.9C49.1,97,34.8,98.7,28.1,98.7z"/>
	<path class="st0" d="M81.2,90.4c-3.8,0-7.5-0.6-11.1-1.5c-1.7-0.6-3.4-1.1-5.5-2.1c-4.4-1.9-8.8-3.4-13.2-4.8
		c-1.1-0.4-1.7-1.5-1.5-2.7c0.4-1.1,1.5-1.7,2.7-1.5c4.4,1.3,9,3.1,13.6,5c1.9,0.8,3.4,1.3,5,1.9c8.4,2.5,17.8,1.7,25.8-2.3
		c1.1-0.6,2.3-0.2,2.9,1c0.6,1.1,0.2,2.3-1,2.9C93.7,88.9,87.3,90.4,81.2,90.4z"/>
	<path class="st0" d="M75.7,98.7c-4.2,0-7.7,3.4-7.7,7.7s3.4,7.7,7.7,7.7s7.7-3.4,7.7-7.7S79.9,98.7,75.7,98.7z M75.7,110.2
		c-2.1,0-3.8-1.7-3.8-3.8c0-2.1,1.7-3.8,3.8-3.8c2.1,0,3.8,1.7,3.8,3.8C79.5,108.5,77.8,110.2,75.7,110.2z"/>
	<path class="st0" d="M75.7,108.3L75.7,108.3c1.1,0,1.9-0.9,1.9-1.9l0,0c0-1.1-0.9-1.9-1.9-1.9l0,0c-1.1,0-1.9,0.9-1.9,1.9l0,0
		C73.8,107.4,74.6,108.3,75.7,108.3z"/>
	<path class="st0" d="M56.3,106.4c0-4.2-3.4-7.7-7.7-7.7s-7.7,3.4-7.7,7.7s3.4,7.7,7.7,7.7S56.3,110.6,56.3,106.4z M48.6,110.2
		c-2.1,0-3.8-1.7-3.8-3.8c0-2.1,1.7-3.8,3.8-3.8s3.8,1.7,3.8,3.8C52.4,108.5,50.7,110.2,48.6,110.2z"/>
	<path class="st0" d="M48.6,108.3L48.6,108.3c1.1,0,1.9-0.9,1.9-1.9l0,0c0-1.1-0.9-1.9-1.9-1.9l0,0c-1.1,0-1.9,0.9-1.9,1.9l0,0
		C46.7,107.4,47.5,108.3,48.6,108.3z"/>
	<path class="st0" d="M85.9,66.5c2.1-0.8,3.2-1.7,3.2-1.7c1-0.7,1.4-2.1,0.7-3.1s-2.1-1.4-3.1-0.7c-0.2,0.1-4.4,3-10.1,4.4
		c-5.1,1.1-7.6,1.1-10.7-1.1c-1-0.8-2.2-0.7-3.1,0.1c-0.8,1-0.7,2.2,0.1,3.1C72.7,72.7,78.4,69.3,85.9,66.5z"/>
</g>
</svg>
